<?xml version="1.0" standalone="no"?>
<!DOCTYPE svg PUBLIC "-//W3C//DTD SVG 20010904//EN"
 "http://www.w3.org/TR/2001/REC-SVG-20010904/DTD/svg10.dtd">
<svg version="1.0" xmlns="http://www.w3.org/2000/svg"
 width="512.000000pt" height="512.000000pt" viewBox="0 0 512.000000 512.000000"
 preserveAspectRatio="xMidYMid meet">

<g transform="translate(0.000000,512.000000) scale(0.100000,-0.100000)"
fill="#000000" stroke="none">
<path d="M2865 3729 c-264 -159 -481 -293 -483 -298 -1 -4 312 -532 696 -1172
l698 -1164 667 -3 c495 -1 667 1 667 9 0 19 -1744 2918 -1755 2918 -5 0 -226
-131 -490 -290z"/>
<path d="M1686 2690 c-264 -159 -483 -293 -488 -298 -5 -5 163 -295 379 -653
l388 -644 668 -3 c367 -1 667 1 667 5 0 11 -1124 1883 -1130 1883 -3 0 -221
-131 -484 -290z"/>
<path d="M495 1644 c-270 -162 -489 -300 -487 -306 2 -6 35 -65 74 -130 l71
-118 669 0 c532 0 669 3 665 13 -4 12 -470 788 -491 818 -10 15 -72 -19 -501
-277z"/>
</g>
</svg>
